<svg width="24" height="21" viewBox="0 0 24 21" fill="none" xmlns="http://www.w3.org/2000/svg">
<path d="M21.5781 0.250244C22.5938 0.250244 23.4531 1.10962 23.4531 2.12524V14.6252C23.4531 15.6799 22.5938 16.5002 21.5781 16.5002H14.0781L14.7031 18.3752H17.5156C18.0234 18.3752 18.4531 18.8049 18.4531 19.3127C18.4531 19.8596 18.0234 20.2502 17.5156 20.2502H6.89062C6.34375 20.2502 5.95312 19.8596 5.95312 19.3127C5.95312 18.8049 6.34375 18.3752 6.89062 18.3752H9.70312L10.3281 16.5002H2.82812C1.77344 16.5002 0.953125 15.6799 0.953125 14.6252V2.12524C0.953125 1.10962 1.77344 0.250244 2.82812 0.250244H21.5781ZM20.9531 11.5002V2.75024H3.45312V11.5002H20.9531Z" fill="black"/>
</svg>
