<svg width="21" height="16" viewBox="0 0 21 16" fill="none" xmlns="http://www.w3.org/2000/svg">
<path d="M20.5527 5.57324C20.709 5.45605 20.9434 5.57324 20.9434 5.76855V13.7373C20.9434 14.792 20.084 15.6123 19.0684 15.6123H2.81836C1.76367 15.6123 0.943359 14.792 0.943359 13.7373V5.76855C0.943359 5.57324 1.13867 5.45605 1.29492 5.57324C2.19336 6.27637 3.32617 7.13574 7.31055 10.0264C8.13086 10.6123 9.53711 11.9014 10.9434 11.9014C12.3105 11.9014 13.7559 10.6123 14.5371 10.0264C18.5215 7.13574 19.6543 6.27637 20.5527 5.57324ZM10.9434 10.6123C10.0059 10.6514 8.7168 9.47949 8.05273 9.01074C2.85742 5.26074 2.4668 4.90918 1.29492 3.97168C1.06055 3.81543 0.943359 3.54199 0.943359 3.22949V2.4873C0.943359 1.47168 1.76367 0.612305 2.81836 0.612305H19.0684C20.084 0.612305 20.9434 1.47168 20.9434 2.4873V3.22949C20.9434 3.54199 20.7871 3.81543 20.5527 3.97168C19.3809 4.90918 18.9902 5.26074 13.7949 9.01074C13.1309 9.47949 11.8418 10.6514 10.9434 10.6123Z" fill="black"/>
</svg>
