<svg width="27" height="27" viewBox="0 0 27 27" fill="none" xmlns="http://www.w3.org/2000/svg">
<path d="M12.4219 17.2656L7.03125 22.6562L8.90625 24.5312C9.84375 25.4102 9.19922 26.875 7.91016 26.875H1.34766C0.585938 26.875 0 26.2891 0 25.4688V18.9062C0 17.6758 1.46484 17.0312 2.34375 17.9688L4.21875 19.8438L9.60938 14.4531C9.96094 14.1016 10.6055 14.1016 10.957 14.4531L12.4219 15.918C12.7734 16.2695 12.7734 16.9141 12.4219 17.2656ZM13.7695 10.293L19.2188 4.84375L17.2852 3.02734C16.3477 2.14844 16.9922 0.625 18.2812 0.625H24.8438C25.6055 0.625 26.25 1.26953 26.25 2.03125V8.59375C26.25 9.88281 24.7266 10.5273 23.8477 9.58984L22.0312 7.65625L16.582 13.1055C16.2305 13.457 15.5859 13.457 15.2344 13.1055L13.7695 11.6406C13.418 11.2891 13.418 10.6445 13.7695 10.293Z" fill="#656262"/>
</svg>
