<svg width="22" height="26" viewBox="0 0 22 26" fill="none" xmlns="http://www.w3.org/2000/svg">
<path d="M21.875 18.875C20.459 18.875 20.3125 17.3125 18.2129 17.3125C16.1133 17.3125 15.918 18.875 14.5508 18.875C13.2324 18.875 13.0371 17.3125 10.9375 17.3125C8.83789 17.3125 8.59375 18.875 7.27539 18.875C5.9082 18.875 5.76172 17.3125 3.61328 17.3125C1.51367 17.3125 1.36719 18.875 0 18.875V14.9688C0 13.6992 1.02539 12.625 2.34375 12.625H3.125V5.59375H6.25V12.625H9.375V5.59375H12.5V12.625H15.625V5.59375H18.75V12.625H19.5312C20.8008 12.625 21.875 13.6992 21.875 14.9688V18.875ZM21.875 25.125H0V20.4375C2.09961 20.4375 2.24609 18.875 3.61328 18.875C4.98047 18.875 5.17578 20.4375 7.27539 20.4375C9.375 20.4375 9.57031 18.875 10.9375 18.875C12.3047 18.875 12.4512 20.4375 14.5508 20.4375C16.6992 20.4375 16.8457 18.875 18.2129 18.875C19.5312 18.875 19.7266 20.4375 21.875 20.4375V25.125ZM4.6875 4.8125C3.80859 4.8125 3.125 4.12891 3.125 3.25C3.125 1.73633 4.6875 2.12695 4.6875 0.125C5.27344 0.125 6.25 1.58984 6.25 2.85938C6.25 4.17773 5.51758 4.8125 4.6875 4.8125ZM10.9375 4.8125C10.0586 4.8125 9.375 4.12891 9.375 3.25C9.375 1.73633 10.9375 2.12695 10.9375 0.125C11.5234 0.125 12.5 1.58984 12.5 2.85938C12.5 4.17773 11.7676 4.8125 10.9375 4.8125ZM17.1875 4.8125C16.3086 4.8125 15.625 4.12891 15.625 3.25C15.625 1.73633 17.1875 2.12695 17.1875 0.125C17.7734 0.125 18.75 1.58984 18.75 2.85938C18.75 4.17773 18.0176 4.8125 17.1875 4.8125Z" fill="black"/>
</svg>
