<svg width="23" height="26" viewBox="0 0 23 26" fill="none" xmlns="http://www.w3.org/2000/svg">
<path d="M8.3125 4.53125C8.3125 6.14258 7.33594 7.50977 5.96875 8.14453V10C5.96875 10.8789 6.65234 11.5625 7.53125 11.5625H15.3438C16.1738 11.5625 16.9062 10.8789 16.9062 10V8.14453C15.4902 7.50977 14.5625 6.14258 14.5625 4.53125C14.5625 2.38281 16.2715 0.625 18.4688 0.625C20.6172 0.625 22.375 2.38281 22.375 4.53125C22.375 6.14258 21.3984 7.50977 20.0312 8.14453V10C20.0312 12.5879 17.9316 14.6875 15.3438 14.6875H13V18.1543C14.3672 18.7402 15.3438 20.1562 15.3438 21.7188C15.3438 23.916 13.5859 25.625 11.4375 25.625C9.24023 25.625 7.53125 23.916 7.53125 21.7188C7.53125 20.1562 8.45898 18.7402 9.875 18.1543V14.6875H7.53125C4.89453 14.6875 2.84375 12.5879 2.84375 10V8.14453C1.42773 7.50977 0.5 6.14258 0.5 4.53125C0.5 2.38281 2.20898 0.625 4.40625 0.625C6.55469 0.625 8.3125 2.38281 8.3125 4.53125ZM4.40625 5.70312C5.04102 5.70312 5.57812 5.21484 5.57812 4.53125C5.57812 3.89648 5.04102 3.35938 4.40625 3.35938C3.72266 3.35938 3.23438 3.89648 3.23438 4.53125C3.23438 5.21484 3.72266 5.70312 4.40625 5.70312ZM18.4688 5.70312C19.1035 5.70312 19.6406 5.21484 19.6406 4.53125C19.6406 3.89648 19.1035 3.35938 18.4688 3.35938C17.7852 3.35938 17.2969 3.89648 17.2969 4.53125C17.2969 5.21484 17.7852 5.70312 18.4688 5.70312ZM11.4375 20.5469C10.7539 20.5469 10.2656 21.084 10.2656 21.7188C10.2656 22.4023 10.7539 22.8906 11.4375 22.8906C12.0723 22.8906 12.6094 22.4023 12.6094 21.7188C12.6094 21.084 12.0723 20.5469 11.4375 20.5469Z" fill="black"/>
</svg>
