<svg width="19" height="26" viewBox="0 0 19 26" fill="none" xmlns="http://www.w3.org/2000/svg">
<path d="M10.9375 6.76562C10.9375 7.44922 11.4258 7.9375 12.1094 7.9375H18.75V23.9531C18.75 24.6367 18.2129 25.125 17.5781 25.125H1.17187C0.488281 25.125 0 24.6367 0 23.9531L0 1.29688C0 0.662109 0.488281 0.125 1.17188 0.125H10.9375V6.76562ZM14.0625 18.2891V17.8984C14.0625 17.6055 13.7695 17.3125 13.4766 17.3125H5.27344C4.93164 17.3125 4.6875 17.6055 4.6875 17.8984V18.2891C4.6875 18.6309 4.93164 18.875 5.27344 18.875H13.4766C13.7695 18.875 14.0625 18.6309 14.0625 18.2891ZM14.0625 15.1641V14.7734C14.0625 14.4805 13.7695 14.1875 13.4766 14.1875H5.27344C4.93164 14.1875 4.6875 14.4805 4.6875 14.7734V15.1641C4.6875 15.5059 4.93164 15.75 5.27344 15.75H13.4766C13.7695 15.75 14.0625 15.5059 14.0625 15.1641ZM14.0625 11.6484C14.0625 11.3555 13.7695 11.0625 13.4766 11.0625H5.27344C4.93164 11.0625 4.6875 11.3555 4.6875 11.6484V12.0391C4.6875 12.3809 4.93164 12.625 5.27344 12.625H13.4766C13.7695 12.625 14.0625 12.3809 14.0625 12.0391V11.6484ZM18.75 6.08203V6.375H12.5V0.125H12.793C13.0859 0.125 13.3789 0.271484 13.623 0.466797L18.4082 5.25195C18.6035 5.49609 18.75 5.78906 18.75 6.08203Z" fill="black"/>
</svg>
