<svg width="32" height="23" viewBox="0 0 32 23" fill="none" xmlns="http://www.w3.org/2000/svg">
<path d="M9.875 11.125C6.84766 11.125 4.40625 8.68359 4.40625 5.65625C4.40625 2.67773 6.84766 0.1875 9.875 0.1875C12.8535 0.1875 15.3438 2.67773 15.3438 5.65625C15.3438 8.68359 12.8535 11.125 9.875 11.125ZM13.5859 12.6875C16.7109 12.6875 19.25 15.2266 19.25 18.3516V19.7188C19.25 21.0371 18.1758 22.0625 16.9062 22.0625H2.84375C1.52539 22.0625 0.5 21.0371 0.5 19.7188V18.3516C0.5 15.2266 2.99023 12.6875 6.11523 12.6875H6.50586C7.53125 13.1758 8.6543 13.4688 9.875 13.4688C11.0469 13.4688 12.1699 13.1758 13.1953 12.6875H13.5859ZM23.9375 11.125C21.3496 11.125 19.25 9.02539 19.25 6.4375C19.25 3.84961 21.3496 1.75 23.9375 1.75C26.5254 1.75 28.625 3.84961 28.625 6.4375C28.625 9.02539 26.5254 11.125 23.9375 11.125ZM26.2812 12.6875C29.2598 12.6875 31.75 15.1777 31.75 18.1562C31.75 19.4746 30.6758 20.5 29.4062 20.5H20.7637C20.7637 20.4023 20.8125 20.3047 20.8125 20.207V18.3516C20.8125 16.4473 20.0312 14.7383 18.8594 13.4688C19.6406 12.9805 20.5684 12.6875 21.5938 12.6875H21.7402C22.4238 12.9316 23.1562 13.0781 23.9375 13.0781C24.6699 13.0781 25.4023 12.9316 26.0859 12.6875H26.2812Z" fill="black"/>
</svg>
