<svg width="27" height="27" viewBox="0 0 27 27" fill="none" xmlns="http://www.w3.org/2000/svg">
<path d="M16.793 16.918C13.8633 19.8477 9.17578 19.7988 6.34375 16.918C6.29492 16.918 6.29492 16.918 6.29492 16.918L3.02344 13.6465C0.142578 10.7656 0.142578 6.0293 3.02344 3.14844C5.9043 0.267578 10.6406 0.267578 13.5215 3.14844L15.3281 4.95508C15.8164 5.44336 15.4746 6.27344 14.791 6.27344C13.9609 6.32227 13.082 6.46875 12.252 6.76172C11.959 6.85937 11.6172 6.81055 11.4219 6.56641L10.7871 5.93164C9.41992 4.56445 7.17383 4.51562 5.80664 5.88281C4.39062 7.25 4.39062 9.49609 5.80664 10.8633L9.07812 14.1836C10.4453 15.5508 12.6426 15.5508 14.0586 14.1836C14.2051 13.9883 14.3516 13.793 14.4492 13.6465C14.5957 13.4512 14.791 13.3047 15.084 13.3047C15.5723 13.3047 16.1094 13.5 16.5488 13.8906L17.5742 14.916C17.8184 15.209 17.8672 15.5996 17.623 15.9414C17.3789 16.2832 17.0859 16.625 16.793 16.918ZM23.6777 23.8027C20.7969 26.6836 16.0605 26.6836 13.1797 23.8027L11.373 21.9961C10.8848 21.5078 11.2266 20.6777 11.9102 20.6777C12.7402 20.6289 13.6191 20.4824 14.4492 20.1895C14.7422 20.0918 15.084 20.1406 15.2793 20.3848L15.9141 21.0195C17.2812 22.3867 19.5273 22.4355 20.8945 21.0684C22.3105 19.7012 22.3105 17.4551 20.8945 16.0879L17.623 12.7676C16.2559 11.4004 14.0586 11.4004 12.6426 12.7676C12.4961 12.9629 12.3496 13.1582 12.252 13.3047C12.1055 13.5 11.9102 13.6465 11.6172 13.6465C11.1289 13.6465 10.5918 13.4512 10.1523 13.0605L9.12695 12.0352C8.88281 11.7422 8.83398 11.3516 9.07812 11.0098C9.32227 10.668 9.61523 10.3262 9.9082 10.0332C12.8379 7.10352 17.5254 7.15234 20.3574 10.0332C20.4062 10.0332 20.4062 10.0332 20.4062 10.0332L23.6777 13.3047C26.5586 16.1855 26.5586 20.9219 23.6777 23.8027Z" fill="black"/>
</svg>
