<svg width="26" height="26" viewBox="0 0 26 26" fill="none" xmlns="http://www.w3.org/2000/svg">
<path d="M24.6543 25.0723C24.5078 25.6094 24.0684 26 23.5312 26C10.9824 26 0.875 15.8437 0.875 3.34375C0.875 2.75781 1.2168 2.31836 1.75391 2.17187L6.83203 1C7.36914 0.902344 7.95508 1.14648 8.19922 1.68359L10.543 7.15234C10.7383 7.64062 10.5918 8.17773 10.2012 8.51953L7.22266 10.9609C9.0293 14.7695 12.1543 17.8457 15.8652 19.6035L18.3066 16.625C18.6484 16.2344 19.1855 16.0879 19.6738 16.2832L25.1426 18.627C25.6797 18.8711 25.9727 19.457 25.8262 19.9941L24.6543 25.0723Z" fill="black"/>
</svg>
