<svg width="20" height="20" viewBox="0 0 20 20" fill="none" xmlns="http://www.w3.org/2000/svg">
<path fill-rule="evenodd" clip-rule="evenodd" d="M10 0C10.2411 0 10.4723 0.0957788 10.6428 0.266266C10.8133 0.436754 10.9091 0.667985 10.9091 0.909091V9.09091H19.0909C19.332 9.09091 19.5632 9.18669 19.7337 9.35718C19.9042 9.52766 20 9.75889 20 10C20 10.2411 19.9042 10.4723 19.7337 10.6428C19.5632 10.8133 19.332 10.9091 19.0909 10.9091H10.9091V19.0909C10.9091 19.332 10.8133 19.5632 10.6428 19.7337C10.4723 19.9042 10.2411 20 10 20C9.75889 20 9.52766 19.9042 9.35718 19.7337C9.18669 19.5632 9.09091 19.332 9.09091 19.0909V10.9091H0.909091C0.667985 10.9091 0.436754 10.8133 0.266266 10.6428C0.0957788 10.4723 0 10.2411 0 10C0 9.75889 0.0957788 9.52766 0.266266 9.35718C0.436754 9.18669 0.667985 9.09091 0.909091 9.09091H9.09091V0.909091C9.09091 0.667985 9.18669 0.436754 9.35718 0.266266C9.52766 0.0957788 9.75889 0 10 0Z" fill="black"/>
</svg>
