<svg width="25" height="26" viewBox="0 0 25 26" fill="none" xmlns="http://www.w3.org/2000/svg">
<path d="M24.5117 7.9375C24.8047 8.13281 25 8.47461 25 8.81641V16.4336C25 16.8242 24.8047 17.166 24.5117 17.3613L13.0859 24.9785C12.6953 25.2227 12.2559 25.2227 11.8652 24.9785L0.439453 17.3613C0.146484 17.166 0 16.8242 0 16.4336L0 8.81641C0 8.47461 0.146484 8.13281 0.439453 7.9375L11.8652 0.320313C12.2559 0.0761719 12.6953 0.0761719 13.0859 0.320313L24.5117 7.9375ZM13.5742 3.25V8.23047L18.2129 11.3555L21.9727 8.81641L13.5742 3.25ZM11.4258 3.25L2.97852 8.81641L6.73828 11.3555L11.4258 8.23047V3.25ZM2.14844 10.8672V14.4316L4.83398 12.625L2.14844 10.8672ZM11.4258 22.0488V17.0684L6.73828 13.9434L2.97852 16.4336L11.4258 22.0488ZM12.5 15.1641L16.2598 12.625L12.5 10.0859L8.69141 12.625L12.5 15.1641ZM13.5742 22.0488L21.9727 16.4336L18.2129 13.9434L13.5742 17.0684V22.0488ZM22.8516 14.4316V10.8672L20.1172 12.625L22.8516 14.4316Z" fill="black"/>
</svg>
