<svg width="33" height="19" viewBox="0 0 33 19" fill="none" xmlns="http://www.w3.org/2000/svg">
<path d="M31.3711 4.64453C32.4941 4.98633 32.4941 6.5 31.3711 6.8418L17.748 11.041C16.7715 11.334 15.8926 11.1875 15.4531 11.041L5.93164 8.11133C5.29688 8.50195 4.95508 9.18555 4.90625 9.91797C5.3457 10.1621 5.6875 10.6504 5.6875 11.1875C5.6875 11.7246 5.39453 12.1641 5.00391 12.457L6.22461 18.0723C6.32227 18.5605 5.98047 19 5.49219 19H2.70898C2.2207 19 1.87891 18.5605 1.97656 18.0723L3.19727 12.457C2.80664 12.1641 2.5625 11.7246 2.5625 11.1875C2.5625 10.6504 2.85547 10.1621 3.34375 9.86914C3.39258 9.03906 3.68555 8.20898 4.22266 7.57422L1.83008 6.8418C0.707031 6.5 0.707031 4.98633 1.83008 4.64453L15.4531 0.445312C16.1855 0.201172 17.0156 0.201172 17.748 0.445312L31.3711 4.64453ZM18.1875 12.5547L25.2676 10.3574L26 15.875C26 17.6328 21.8008 19 16.625 19C11.4004 19 7.25 17.6328 7.25 15.875L7.93359 10.3574L15.0137 12.5547C15.5996 12.75 16.8203 12.9453 18.1875 12.5547Z" fill="black"/>
</svg>
